<?xml version="1.0" encoding="utf-8"?>
<!-- Generator: Adobe Illustrator 26.5.0, SVG Export Plug-In . SVG Version: 6.00 Build 0)  -->
<svg version="1.0" id="katman_1" xmlns="http://www.w3.org/2000/svg" xmlns:xlink="http://www.w3.org/1999/xlink" x="0px" y="0px"
	 viewBox="0 0 452 352" style="enable-background:new 0 0 452 352;" xml:space="preserve">
<style type="text/css">
	.st0{fill:#113B6A;}
	.st1{fill:#FFFFFF;}
</style>
<g>
	<path class="st0" d="M328.45,48c-14.12,0-25.56,11.44-25.56,25.55c0,4.96,1.44,9.58,3.88,13.5l-16.27,16.27
		c-20.44-18.5-47.54-29.77-77.28-29.77C149.59,73.55,98,125.15,98,188.78C98,252.42,149.59,304,213.22,304
		c63.64,0,115.22-51.59,115.22-115.22c0-29.74-11.27-56.84-29.77-77.28l16.27-16.27c3.92,2.45,8.54,3.88,13.5,3.88
		c14.11,0,25.55-11.44,25.55-25.55S342.56,48,328.45,48z"/>
	<path class="st1" d="M159.57,208.18c-0.18,0.33-0.62,0.5-1.34,0.5h-8.42c-1.12,0-1.68-0.54-1.68-1.61c0-2.25,0-4.48,0.02-6.7
		l0.02-3.32c0.03-3.31,0.04-6.66,0.04-10.03c0-2.14-0.37-3.66-1.11-4.55c-0.74-0.89-1.93-1.34-3.56-1.34
		c-1.22,0-2.55,0.29-3.98,0.88c-1.43,0.59-2.6,1.04-3.52,1.34v23.73c0,0.41-0.09,0.78-0.27,1.11c-0.18,0.33-0.62,0.5-1.34,0.5h-8.34
		c-0.66,0-1.11-0.14-1.34-0.42c-0.23-0.28-0.34-0.68-0.34-1.19v-34.44c0-0.51,0.11-0.92,0.34-1.22c0.23-0.31,0.68-0.46,1.34-0.46
		h8.34c0.71,0,1.16,0.18,1.34,0.54c0.18,0.36,0.27,0.74,0.27,1.15v1.84c0.03,0,0.06,0.01,0.08,0.02l0.03,0.02
		c0.03,0.03,0.06,0.04,0.12,0.04c1.69-1.27,3.65-2.31,5.89-3.1c2.24-0.79,4.29-1.19,6.12-1.19c2.7,0,4.84,0.45,6.39,1.34
		c1.56,0.9,2.72,2.07,3.48,3.52c0.77,1.45,1.24,3.08,1.41,4.86c0.18,1.79,0.27,3.57,0.27,5.36v21.74
		C159.85,207.47,159.75,207.84,159.57,208.18z M189.09,204.08c-1.02,0.92-2.12,1.71-3.29,2.37c-1.17,0.66-2.37,1.21-3.6,1.65
		c-1.23,0.43-2.42,0.74-3.6,0.92c-1.17,0.18-2.24,0.27-3.21,0.27c-2.25,0-4.07-0.32-5.47-0.96c-1.4-0.64-2.49-1.47-3.25-2.49
		c-0.77-1.02-1.29-2.21-1.57-3.56c-0.24-1.12-0.37-2.3-0.41-3.51l-0.01-0.74c-0.05-2.35,0.27-4.33,0.96-5.97
		c0.69-1.63,1.67-2.95,2.95-3.94c1.27-0.99,2.83-1.71,4.67-2.14c1.84-0.43,3.88-0.65,6.12-0.65h8.8v-1.22
		c0-0.82-0.09-1.51-0.27-2.07c-0.18-0.56-0.51-1.02-0.99-1.38c-0.49-0.36-1.16-0.62-2.03-0.8c-0.76-0.16-1.73-0.25-2.92-0.26
		l-0.52,0c-0.34,0-0.73,0.01-1.16,0.03l-3.58,0.2l0,0c-0.92,0.05-1.84,0.13-2.76,0.23c-0.69,0.08-1.33,0.14-1.94,0.19l-1.25,0.1
		c-0.71,0.04-1.19,0.03-1.45-0.05c-0.33-0.1-0.6-0.54-0.8-1.3l-0.84-3.98c-0.1-0.66-0.01-1.21,0.27-1.65
		c0.28-0.43,1.01-0.88,2.18-1.34c0.87-0.31,1.87-0.57,3.02-0.8c1.15-0.23,2.32-0.42,3.52-0.57c1.2-0.15,2.39-0.27,3.56-0.34
		c1.17-0.08,2.19-0.11,3.06-0.11c3.57,0,6.44,0.33,8.61,0.99c2.17,0.66,3.83,1.61,4.97,2.83s1.9,2.73,2.26,4.52
		c0.36,1.79,0.54,3.83,0.54,6.12v12.09c0,0.82,0.04,1.45,0.12,1.91c0.08,0.46,0.22,0.8,0.42,1.03c0.2,0.23,0.48,0.4,0.84,0.5
		c0.29,0.08,0.65,0.15,1.1,0.2l0.35,0.03c0.66,0.05,1.1,0.17,1.3,0.34c0.2,0.18,0.31,0.5,0.31,0.96v4.9c0,0.95-0.64,1.59-1.91,1.92
		l-0.31,0.07c-1.43,0.36-3.01,0.54-4.75,0.54c-1.89,0-3.55-0.32-4.98-0.96c-1.43-0.64-2.4-1.98-2.91-4.02L189.09,204.08z
		 M187.94,192.75h-6.89c-1.43,0-2.55,0.33-3.37,0.99c-0.82,0.66-1.23,1.89-1.23,3.68c0,1.17,0.24,1.99,0.73,2.45
		c0.48,0.46,1.39,0.69,2.72,0.69c1.17,0,2.54-0.28,4.1-0.84c1.56-0.56,2.87-1.17,3.94-1.84L187.94,192.75z M238.23,196.76
		c0,2.39-0.47,4.39-1.42,5.99c-0.95,1.61-2.21,2.89-3.79,3.86c-1.58,0.97-3.38,1.67-5.4,2.1c-2.02,0.43-4.12,0.65-6.32,0.65
		c-0.92,0-1.91-0.04-2.98-0.11c-1.07-0.08-2.16-0.19-3.25-0.34c-1.1-0.15-2.15-0.33-3.14-0.53c-0.99-0.2-1.88-0.43-2.64-0.68
		c-1.28-0.46-2.09-0.92-2.45-1.41c-0.32-0.43-0.39-1.06-0.23-1.91l0.91-3.97c0.15-0.71,0.38-1.15,0.69-1.3
		c0.27-0.13,0.75-0.15,1.45-0.05l0.31,0.05c1.79,0.31,3.72,0.55,5.82,0.73c2.09,0.18,3.8,0.27,5.13,0.27c1.94,0,3.31-0.22,4.13-0.65
		c0.82-0.44,1.22-1.16,1.22-2.19c0-1.13-0.31-1.88-0.92-2.26c-0.61-0.38-1.74-0.68-3.37-0.88c-2.09-0.31-4.04-0.67-5.86-1.07
		c-1.81-0.41-3.41-1.02-4.78-1.84c-1.38-0.82-2.46-1.92-3.25-3.3c-0.79-1.38-1.19-3.2-1.19-5.45c0-2.05,0.39-3.84,1.18-5.37
		c0.78-1.53,1.86-2.81,3.23-3.83c1.37-1.02,3.01-1.79,4.91-2.3c1.9-0.51,3.98-0.77,6.22-0.77c0.87,0,1.83,0.04,2.87,0.12
		c1.05,0.08,2.11,0.18,3.18,0.31c1.07,0.13,2.11,0.3,3.1,0.5c0.99,0.21,1.9,0.46,2.72,0.77c1.02,0.36,1.77,0.73,2.26,1.12
		c0.48,0.39,0.6,1.07,0.34,2.05l-0.84,3.94c-0.2,0.72-0.42,1.15-0.65,1.31c-0.2,0.14-0.66,0.17-1.37,0.11l-2.36-0.28
		c-0.25-0.03-0.5-0.06-0.75-0.09c-1.02-0.13-2.03-0.23-3.02-0.31l-2.13-0.15c-0.22-0.01-0.45-0.03-0.66-0.04l-0.98-0.05
		c-0.15-0.01-0.3-0.01-0.44-0.01l-0.8-0.01c-1.94-0.05-3.15,0.17-3.64,0.65c-0.48,0.48-0.73,1.13-0.73,1.95
		c0,0.97,0.45,1.59,1.35,1.87c0.9,0.28,2.04,0.55,3.42,0.8c2,0.26,3.89,0.57,5.69,0.95c1.79,0.38,3.37,1.01,4.72,1.87
		s2.44,2.02,3.27,3.47C237.82,192.45,238.23,194.37,238.23,196.76z M299.74,208.18c-0.18,0.33-0.6,0.5-1.26,0.5h-8.42
		c-0.66,0-1.11-0.14-1.34-0.42c-0.23-0.28-0.34-0.68-0.34-1.19v-20.13c0-2.35-0.36-3.9-1.07-4.67c-0.71-0.77-1.79-1.15-3.21-1.15
		c-0.92,0-2.04,0.24-3.37,0.73c-1.33,0.48-2.47,0.98-3.44,1.49v23.73c0,0.41-0.09,0.78-0.27,1.11c-0.18,0.33-0.62,0.5-1.34,0.5
		h-8.42c-0.62,0-1.03-0.14-1.26-0.42c-0.23-0.28-0.34-0.68-0.34-1.19V186.7c0-2.14-0.34-3.61-1.04-4.4
		c-0.7-0.79-1.74-1.19-3.12-1.19c-0.93,0-2.04,0.23-3.35,0.69c-1.31,0.46-2.51,0.97-3.58,1.53v23.73c0,0.41-0.1,0.78-0.31,1.11
		c-0.2,0.33-0.66,0.5-1.37,0.5h-8.36c-0.61,0-1.03-0.14-1.26-0.42c-0.23-0.28-0.34-0.68-0.34-1.19v-34.44
		c0-0.51,0.11-0.92,0.34-1.22c0.23-0.31,0.65-0.46,1.26-0.46h8.36c0.71,0,1.17,0.18,1.37,0.54c0.2,0.36,0.31,0.74,0.31,1.15v1.76
		l0.15,0.08c1.63-1.33,3.42-2.36,5.36-3.1c1.94-0.74,3.9-1.11,5.9-1.11c2.3,0,4.31,0.42,6.05,1.26c1.73,0.84,3.01,2.16,3.83,3.94
		c1.79-1.48,3.81-2.72,6.08-3.71c2.27-0.99,4.55-1.49,6.85-1.49c2.7,0,4.81,0.45,6.32,1.34c1.5,0.9,2.63,2.06,3.37,3.48
		c0.74,1.43,1.19,3.04,1.34,4.82c0.15,1.79,0.23,3.57,0.23,5.36v21.82C300.01,207.47,299.92,207.84,299.74,208.18z"/>
</g>
</svg>

